<svg width="30" height="30" viewBox="0 0 30 30" fill="none" xmlns="http://www.w3.org/2000/svg"><rect width="30" height="30" rx="15" fill="#3C589A"/><path d="M17.84 9.32l-1.475-.003c-1.655 0-2.726 1.098-2.726 2.797v1.29h-1.481a.232.232 0 00-.232.232v1.869c0 .128.104.231.232.231h1.481v4.715c0 .128.104.232.232.232h1.934a.232.232 0 00.231-.232v-4.715h1.733a.232.232 0 00.232-.232v-1.868a.232.232 0 00-.231-.232h-1.734v-1.093c0-.526.126-.792.81-.792h.993a.232.232 0 00.232-.232V9.55a.232.232 0 00-.232-.231z" fill="#fff"/></svg>