<svg width="30" height="30" viewBox="0 0 30 30" fill="none" xmlns="http://www.w3.org/2000/svg"><rect width="30" height="30" rx="15" fill="#C131A1"/><path fill-rule="evenodd" clip-rule="evenodd" d="M9.5 11.78a2.558 2.558 0 012.558-2.557h5.884A2.558 2.558 0 0120.5 11.78v6.44a2.558 2.558 0 01-2.558 2.557h-5.884A2.558 2.558 0 019.5 18.22v-6.44zM12.356 15a2.667 2.667 0 015.333 0v.158a2.667 2.667 0 11-5.333 0V15zm5.766-4.11a.722.722 0 100 1.444.722.722 0 000-1.445z" fill="#fff"/><path d="M13.369 15a1.631 1.631 0 113.262 0 1.631 1.631 0 01-3.262 0z" fill="#fff"/></svg>