<svg width="28" height="20" viewBox="0 0 28 20" fill="none" xmlns="http://www.w3.org/2000/svg"><mask id="a" style="mask-type:alpha" maskUnits="userSpaceOnUse" x="0" y="0" width="28" height="20"><path d="M25.333 0H2.667A2.667 2.667 0 000 2.667v14.666A2.667 2.667 0 002.667 20h22.666A2.667 2.667 0 0028 17.333V2.667A2.667 2.667 0 0025.333 0z" fill="#fff"/></mask><g mask="url(#a)"><path d="M25.333 0H2.667A2.667 2.667 0 000 2.667v14.666A2.667 2.667 0 002.667 20h22.666A2.667 2.667 0 0028 17.333V2.667A2.667 2.667 0 0025.333 0z" fill="#22438B"/><path fill-rule="evenodd" clip-rule="evenodd" d="M3.998 1.333l-2.701.035L1.332 4l22.642 14.704 2.716-.05-.05-2.615L3.998 1.333z" fill="#fff"/><path fill-rule="evenodd" clip-rule="evenodd" d="M2.665 1.333L1.332 2.667l24 16 1.333-1.334-24-16z" fill="#C7152A"/><path fill-rule="evenodd" clip-rule="evenodd" d="M23.999 1.333h2.667V4S10.999 13.861 4.023 18.704c-.084.059-2.664.004-2.664.004l-.207-2.534L24 1.334z" fill="#fff"/><path fill-rule="evenodd" clip-rule="evenodd" d="M25.39 1.296l1.275 1.37-24 16-1.333-1.333L25.389 1.296z" fill="#C7152A"/><path fill-rule="evenodd" clip-rule="evenodd" d="M10.665 1.333h6.667v5.334h9.333v6.667h-9.333v5.333h-6.667v-5.334H1.332V6.668h9.333V1.334z" fill="#fff"/><path fill-rule="evenodd" clip-rule="evenodd" d="M11.999 1.333h4V8h10.666v4H16v6.667h-4V12H1.332V8h10.667V1.333z" fill="#C7152A"/><path d="M25.335.667H2.668a2 2 0 00-2 2v14.666a2 2 0 002 2h22.667a2 2 0 002-2V2.667a2 2 0 00-2-2z" stroke="#000" stroke-opacity=".1"/></g></svg>