<svg width="28" height="20" viewBox="0 0 28 20" fill="none" xmlns="http://www.w3.org/2000/svg"><mask id="a" style="mask-type:alpha" maskUnits="userSpaceOnUse" x="0" y="0" width="28" height="20"><path d="M25.333 0H2.667A2.667 2.667 0 000 2.667v14.666A2.667 2.667 0 002.667 20h22.666A2.667 2.667 0 0028 17.333V2.667A2.667 2.667 0 0025.333 0z" fill="#fff"/></mask><g mask="url(#a)"><path d="M25.333 0H2.667A2.667 2.667 0 000 2.667v14.666A2.667 2.667 0 002.667 20h22.666A2.667 2.667 0 0028 17.333V2.667A2.667 2.667 0 0025.333 0z" fill="#D4112A"/><path fill-rule="evenodd" clip-rule="evenodd" d="M0 14.666h28V20H0v-5.334z" fill="#20BD42"/><path fill-rule="evenodd" clip-rule="evenodd" d="M0 0h28v5.333H0V0z" fill="#02A3BD"/><path fill-rule="evenodd" clip-rule="evenodd" d="M0 6.667h28v6.667H0V6.667zM6.667 5.22a2 2 0 110-3.773 2.001 2.001 0 000 3.773z" fill="#fff"/><path fill-rule="evenodd" clip-rule="evenodd" d="M8 2.667h1.333V4H8V2.667zm1.333-1.333h1.334v1.333H9.333V1.334zm1.334 1.333H12V4h-1.333V2.667zM12 1.334h1.333v1.333H12V1.334zm1.333 1.333h1.334V4h-1.334V2.667zM12 4h1.333v1.333H12V4zM9.333 4h1.334v1.333H9.333V4z" fill="#78CDDB"/><path d="M25.335.667H2.668a2 2 0 00-2 2v14.666a2 2 0 002 2h22.667a2 2 0 002-2V2.667a2 2 0 00-2-2z" stroke="#000" stroke-opacity=".1"/></g></svg>