<svg width="28" height="20" viewBox="0 0 28 20" fill="none" xmlns="http://www.w3.org/2000/svg"><mask id="a" style="mask-type:alpha" maskUnits="userSpaceOnUse" x="0" y="0" width="28" height="20"><path d="M25.333 0H2.667A2.667 2.667 0 000 2.667v14.666A2.667 2.667 0 002.667 20h22.666A2.667 2.667 0 0028 17.333V2.667A2.667 2.667 0 0025.333 0z" fill="#fff"/></mask><g mask="url(#a)"><path d="M25.333 0H2.667A2.667 2.667 0 000 2.667v14.666A2.667 2.667 0 002.667 20h22.666A2.667 2.667 0 0028 17.333V2.667A2.667 2.667 0 0025.333 0z" fill="#0034A9"/><path fill-rule="evenodd" clip-rule="evenodd" d="M0 13.334h28V20H0v-6.666z" fill="#D7280F"/><path fill-rule="evenodd" clip-rule="evenodd" d="M0 0h28v6.667H0V0z" fill="#fff"/><path d="M25.335.667H2.668a2 2 0 00-2 2v14.666a2 2 0 002 2h22.667a2 2 0 002-2V2.667a2 2 0 00-2-2z" stroke="#000" stroke-opacity=".1"/></g></svg>