<svg width="250" height="52" viewBox="0 0 250 52" fill="none" xmlns="http://www.w3.org/2000/svg"><path d="M110.126 11.426h2.656c1.729 0 2.532 1.05 1.976 2.717l-5.25 15.874c-1.914 5.806-3.767 7.535-8.647 7.535-4.817 0-6.794-1.791-8.647-7.535l-5.188-15.874c-.556-1.667.247-2.717 1.977-2.717h2.655c1.42 0 2.286.68 2.718 2.038l4.447 15.009c.68 2.223 1.235 2.47 2.1 2.47s1.421-.309 2.1-2.47l4.447-15.009c.309-1.359 1.235-2.038 2.656-2.038zm25.322 15.194l-11.056 1.174c.927 2.903 3.336 3.953 6.795 3.953 1.729 0 3.767-.309 5.991-.864 1.729-.371 2.717.308 2.717 2.038v.803c0 1.42-.679 2.347-2.038 2.717-2.841.741-5.497 1.174-7.968 1.174-7.905 0-13.217-4.324-13.217-13.341 0-8.524 4.509-13.341 13.279-13.341 7.35 0 11.735 3.459 11.735 10.006 0 3.644-1.544 5.188-6.238 5.682zm-.617-6.36c0-2.472-1.544-3.83-4.88-3.83-3.644 0-5.559 1.667-5.991 6.053l9.018-.927c1.544-.123 1.853-.432 1.853-1.297zm9.696 13.587v-.74c0-1.669.988-2.471 2.717-2.163 6.115 1.174 12.353 1.545 12.353-1.358 0-1.112-.803-1.73-2.594-2.224l-5.497-1.42c-5.126-1.298-7.35-3.892-7.35-7.412 0-7.35 9.512-8.894 18.653-6.67 1.421.308 2.038 1.296 2.038 2.717v.617c0 1.73-.988 2.41-2.717 2.039-5.065-1.112-11.118-1.36-11.118 1.05 0 .864.679 1.482 1.853 1.73l5.868 1.543c5.126 1.297 7.597 3.83 7.597 7.782 0 8.092-10.562 9.574-19.95 7.103-1.236-.308-1.853-1.173-1.853-2.594zm50.774-9.574c0 9.945-5.435 13.342-14.638 13.342-7.659 0-10.933-2.348-10.933-8.215V2.903c0-1.544.865-2.409 2.409-2.409h2.471c1.544 0 2.409.865 2.409 2.409v8.215c1.235-.124 2.47-.124 3.644-.124 9.203-.062 14.638 3.335 14.638 13.28zm-7.288 0c0-5.497-2.038-7.226-6.918-7.226-1.173 0-2.532.123-4.076.309v10.932c0 2.1.432 3.212 4.138 3.212 4.818 0 6.856-1.853 6.856-7.227zm11.116-20.197c0-2.532 1.359-4.076 4.076-4.076 2.718 0 4.077 1.544 4.077 4.076 0 2.533-1.359 4.015-4.077 4.015-2.717 0-4.076-1.482-4.076-4.015zm.37 30.636V13.835c0-1.544.865-2.409 2.409-2.409h2.594c1.544 0 2.409.865 2.409 2.41v20.876c0 1.544-.865 2.408-2.409 2.408h-2.594c-1.544 0-2.409-.864-2.409-2.408zm37.862-11.674v11.674c0 1.544-.865 2.409-2.409 2.409h-2.471c-1.544 0-2.409-.865-2.409-2.41V22.916c0-4.57-1.667-5.868-5.62-5.868-3.953 0-5.621 1.297-5.621 5.868v11.797c0 1.544-.865 2.409-2.409 2.409h-2.47c-1.544 0-2.409-.865-2.409-2.41V23.04c0-9.389 4.756-12.106 12.847-12.106 8.215 0 12.971 2.717 12.971 12.105zm4.385-18.962c0-2.532 1.359-4.076 4.077-4.076 2.717 0 4.076 1.544 4.076 4.076 0 2.533-1.359 4.015-4.076 4.015-2.718 0-4.077-1.482-4.077-4.015zm.371 30.636V13.835c0-1.544.864-2.409 2.408-2.409h2.595c1.544 0 2.408.865 2.408 2.41v20.876c0 1.544-.864 2.408-2.408 2.408h-2.595c-1.544 0-2.408-.864-2.408-2.408zm-68.434 13.216h-1.112v3.335h-.926v-9.697h.926v5.56h1.174l2.408-3.027h1.112l-2.718 3.459 2.965 3.767H176.4l-2.717-3.397zm6.239-6.362h1.05v1.112h-1.05v-1.112zm.062 2.471h.926v7.165h-.926v-7.165zm11.486-2.532v9.697h-.679l-.124-1.235c-.679.865-1.667 1.359-2.903 1.359-2.161 0-3.705-1.606-3.705-3.768s1.544-3.706 3.705-3.706c1.174 0 2.162.494 2.842 1.297v-3.706h.864v.062zm-.864 6.115c0-1.668-1.174-2.841-2.842-2.841-1.605 0-2.841 1.235-2.841 2.84 0 1.668 1.236 2.842 2.841 2.842 1.606.062 2.842-1.174 2.842-2.841zm4.26-3.582c.433-.186.618-.556.618-1.112h-.679V41.69h1.173v1.112c0 .989-.37 1.483-1.112 1.73v-.494zm3.525 5.064h.864c.062.927.865 1.42 1.977 1.42s1.853-.493 1.853-1.296c0-.988-.989-1.174-2.039-1.297-1.235-.186-2.594-.433-2.594-1.977 0-1.235 1.05-2.038 2.656-2.038s2.594.803 2.656 2.162h-.865c-.061-.865-.741-1.359-1.791-1.359-1.05 0-1.729.494-1.729 1.174 0 .864.865.988 1.915 1.173 1.235.185 2.717.432 2.717 2.162 0 1.297-1.112 2.162-2.779 2.162-1.668 0-2.78-.865-2.841-2.286zm23.158-5.065l-2.471 7.165h-.741l-2.162-5.25-2.162 5.25h-.741l-2.409-7.165h.927l1.914 5.682 2.286-5.497h.309l2.285 5.56 1.976-5.683h.989v-.062zm9.329 3.953h-6.3c.124 1.483 1.235 2.533 2.718 2.533 1.05 0 1.976-.556 2.409-1.42h.926c-.618 1.482-1.853 2.285-3.397 2.285-2.1 0-3.644-1.606-3.644-3.768 0-2.1 1.544-3.706 3.644-3.706 2.162 0 3.582 1.668 3.582 3.768.062.061.062.185.062.308zm-6.3-.864h5.435c-.185-1.42-1.297-2.409-2.717-2.409-1.421.062-2.471.988-2.718 2.409zm16.305-3.088v7.165h-.741l-.124-1.297a3.719 3.719 0 01-2.964 1.42c-2.1 0-3.706-1.606-3.706-3.768 0-2.161 1.606-3.706 3.706-3.706 1.235 0 2.285.556 2.964 1.421l.124-1.297h.741v.062zm-.927 3.582c0-1.667-1.173-2.841-2.841-2.841-1.606 0-2.841 1.235-2.841 2.841s1.235 2.841 2.841 2.841c1.668.062 2.841-1.173 2.841-2.84zm8.401-3.583v.865h-.68c-1.359 0-2.223.926-2.223 2.409v3.953h-.927v-7.165h.68l.185 1.235c.494-.803 1.297-1.235 2.347-1.235h.618v-.062zM3.705 27.115c-1.05-1.73-1.976-3.582-2.594-5.497-1.482-4.447-1.73-9.573.803-13.526 3.15-4.942 9.944-6.61 15.133-3.953 2.161 1.111 3.89 3.273 4.632 5.867.309 1.236.865 3.274.68 5.992a23.32 23.32 0 00-6.3 4.508c-5.065 5.065-6.239 11.18-6.61 13.65-2.285-2.162-4.2-4.509-5.744-7.04zm66.767-6.917s-.124.617-.247 1.173c-.68 2.656-6.856 18.097-20.568 19.394-9.573.927-16.676-5.744-17.973-6.98l-.309-.431c4.138-5.003 6.918-11.242 7.906-17.665.247-1.668.37-3.397.864-5.003C42.06 4.2 48.545-.061 55.155 0c3.705 0 7.473 1.235 10.314 3.644 2.656 2.223 4.57 5.312 5.188 8.708.556 2.533.37 5.25-.185 7.845z" fill="#fff"/><path d="M45.521 47.126c-2.594.988-12.106 4.262-21.123-.185-1.853-.927-5.127-2.594-7.35-6.3-.494-.803-3.583-5.744-1.792-11.612 1.174-3.891 4.015-7.226 7.597-9.203-.308.186.186 3.088.247 3.459.186 1.174.433 2.409.803 3.52.68 2.348 1.792 4.51 3.15 6.548 2.533 3.706 5.56 6.917 9.265 9.45 2.656 1.914 5.868 3.397 9.203 4.323z" fill="#fff"/></svg>