<svg width="200" height="41" viewBox="0 0 200 41" fill="none" xmlns="http://www.w3.org/2000/svg"><path d="M87.858 9.117h2.12c1.38 0 2.02.837 1.576 2.168L87.366 23.95c-1.528 4.632-3.006 6.012-6.9 6.012-3.843 0-5.42-1.43-6.898-6.012l-4.14-12.665c-.443-1.33.197-2.168 1.577-2.168h2.12c1.132 0 1.822.542 2.167 1.626l3.548 11.975c.542 1.774.986 1.97 1.676 1.97s1.133-.246 1.675-1.97l3.548-11.975c.247-1.134.986-1.626 2.12-1.626zm20.205 12.122l-8.821.936c.739 2.316 2.661 3.154 5.42 3.154 1.38 0 3.006-.246 4.78-.69 1.38-.296 2.169.247 2.169 1.626v.64c0 1.134-.542 1.873-1.626 2.17-2.267.59-4.386.935-6.357.935-6.308 0-10.546-3.45-10.546-10.644 0-6.8 3.597-10.644 10.595-10.644 5.864 0 9.363 2.76 9.363 7.983 0 2.908-1.232 4.14-4.977 4.534zm-.493-5.076c0-1.97-1.232-3.055-3.893-3.055-2.908 0-4.435 1.33-4.78 4.83l7.195-.74c1.232-.099 1.478-.345 1.478-1.035zm7.737 10.842v-.592c0-1.33.789-1.97 2.169-1.724 4.878.936 9.855 1.232 9.855-1.084 0-.887-.64-1.38-2.069-1.774l-4.386-1.134c-4.09-1.035-5.864-3.104-5.864-5.913 0-5.864 7.589-7.096 14.882-5.322 1.133.246 1.626 1.034 1.626 2.168v.493c0 1.38-.788 1.921-2.168 1.626-4.041-.887-8.87-1.084-8.87.838 0 .69.542 1.182 1.478 1.38l4.681 1.231c4.091 1.035 6.062 3.056 6.062 6.21 0 6.455-8.427 7.638-15.917 5.666-.986-.246-1.479-.936-1.479-2.07zm40.504-7.639c0 7.934-4.336 10.644-11.679 10.644-6.11 0-8.722-1.872-8.722-6.554V2.316c0-1.232.69-1.922 1.922-1.922h1.971c1.232 0 1.922.69 1.922 1.922V8.87c.986-.099 1.971-.099 2.907-.099 7.343-.049 11.679 2.612 11.679 10.595zm-5.814 0c0-4.386-1.627-5.765-5.52-5.765-.936 0-2.02.098-3.252.246v8.722c0 1.676.345 2.563 3.302 2.563 3.843-.05 5.47-1.479 5.47-5.766zm8.874-16.114c0-2.02 1.084-3.252 3.252-3.252 2.169 0 3.253 1.232 3.253 3.252 0 2.02-1.084 3.203-3.253 3.203-2.168 0-3.252-1.231-3.252-3.203zm.296 24.443V11.038c0-1.232.69-1.921 1.922-1.921h2.069c1.232 0 1.922.69 1.922 1.921v16.657c0 1.231-.69 1.921-1.922 1.921h-2.069c-1.232 0-1.922-.69-1.922-1.921zm30.205-9.315v9.314c0 1.232-.69 1.922-1.922 1.922h-1.971c-1.232 0-1.922-.69-1.922-1.922v-9.412c0-3.646-1.331-4.681-4.484-4.681-3.154 0-4.485 1.035-4.485 4.681v9.412c0 1.232-.69 1.922-1.922 1.922h-1.971c-1.232 0-1.922-.69-1.922-1.922v-9.313c0-7.49 3.795-9.659 10.25-9.659 6.554 0 10.349 2.168 10.349 9.659zm3.499-15.128c0-2.02 1.084-3.252 3.252-3.252 2.169 0 3.253 1.232 3.253 3.252 0 2.02-1.084 3.203-3.253 3.203-2.168 0-3.252-1.231-3.252-3.203zm.296 24.443V11.038c0-1.232.69-1.921 1.922-1.921h2.069c1.232 0 1.922.69 1.922 1.921v16.657c0 1.231-.69 1.921-1.922 1.921h-2.069c-1.232 0-1.922-.69-1.922-1.921zM138.568 38.19h-.887v2.661h-.74v-7.736h.74v4.435h.936l1.922-2.415h.887l-2.169 2.76 2.366 3.006h-.887l-2.168-2.71zm4.975-5.026h.838v.887h-.838v-.887zm.049 1.971h.739v5.717h-.739v-5.717zm9.165-2.02v7.736h-.542l-.098-.985c-.542.69-1.331 1.084-2.317 1.084-1.724 0-2.956-1.281-2.956-3.006 0-1.725 1.232-2.957 2.956-2.957a2.91 2.91 0 012.267 1.035v-2.957h.69v.05zm-.69 4.878c0-1.33-.936-2.267-2.267-2.267-1.281 0-2.266.986-2.266 2.267 0 1.33.985 2.267 2.266 2.267 1.282.05 2.267-.936 2.267-2.267zm3.404-2.858c.345-.148.493-.443.493-.887h-.542v-.985h.936v.887c0 .788-.296 1.182-.887 1.38v-.395zm2.806 4.041h.69c.049.74.69 1.133 1.577 1.133s1.478-.394 1.478-1.034c0-.789-.788-.937-1.626-1.035-.985-.148-2.069-.345-2.069-1.577 0-.986.837-1.626 2.119-1.626 1.281 0 2.069.64 2.119 1.724h-.69c-.05-.69-.592-1.084-1.429-1.084-.838 0-1.38.395-1.38.937 0 .69.69.788 1.527.936.986.148 2.169.345 2.169 1.725 0 1.034-.887 1.724-2.218 1.724-1.33 0-2.217-.69-2.267-1.823zm18.483-4.041l-1.972 5.716h-.591l-1.725-4.189-1.724 4.19h-.592l-1.922-5.717h.74l1.527 4.533 1.824-4.385h.246l1.823 4.435 1.577-4.534h.789v-.05zm7.442 3.154h-5.027c.099 1.183.986 2.02 2.168 2.02.838 0 1.577-.443 1.922-1.133h.739c-.492 1.183-1.478 1.823-2.71 1.823-1.675 0-2.907-1.28-2.907-3.006 0-1.675 1.232-2.956 2.907-2.956 1.725 0 2.858 1.33 2.858 3.006.05.049.05.147.05.246zm-5.027-.69h4.337c-.148-1.133-1.035-1.922-2.169-1.922-1.133.05-1.971.789-2.168 1.922zm13.009-2.464v5.716h-.592l-.098-1.034a2.968 2.968 0 01-2.365 1.133c-1.676 0-2.957-1.281-2.957-3.006 0-1.725 1.281-2.957 2.957-2.957.985 0 1.823.444 2.365 1.134l.098-1.035h.592v.05zm-.739 2.858c0-1.33-.937-2.267-2.267-2.267a2.23 2.23 0 00-2.267 2.267c0 1.282.986 2.267 2.267 2.267 1.33.05 2.267-.936 2.267-2.267zm6.7-2.858v.69h-.542c-1.084 0-1.774.739-1.774 1.921V40.9h-.739v-5.716h.542l.148.986c.394-.641 1.035-.986 1.872-.986h.493v-.05z" fill="#074979"/><path d="M2.956 21.584C2.12 20.204 1.38 18.726.886 17.2c-1.181-3.55-1.379-7.64.642-10.793C4.04 2.465 9.461 1.134 13.601 3.253c1.724.887 3.104 2.612 3.695 4.681.247.986.69 2.612.542 4.78a18.607 18.607 0 00-5.026 3.598c-4.04 4.04-4.977 8.92-5.273 10.89-1.823-1.725-3.35-3.548-4.583-5.618z" fill="#EE2B62"/><path d="M56.226 16.115s-.099.492-.197.936c-.542 2.119-5.47 14.438-16.41 15.473-7.638.74-13.305-4.583-14.34-5.568l-.197-.345c3.302-3.992 5.52-8.969 6.308-14.094.197-1.33.295-2.71.69-3.991C33.607 3.35 38.78-.05 44.054 0c2.957 0 5.963.985 8.23 2.907 2.119 1.774 3.646 4.238 4.14 6.948.393 2.02.245 4.189-.198 6.259z" fill="#17CDC9"/><path d="M36.318 37.6c-2.07.788-9.658 3.4-16.853-.148-1.478-.74-4.09-2.07-5.864-5.026-.394-.641-2.858-4.583-1.43-9.265.937-3.104 3.204-5.765 6.062-7.342-.246.148.148 2.464.197 2.76.148.936.345 1.921.64 2.808.543 1.873 1.43 3.598 2.514 5.224 2.02 2.956 4.435 5.519 7.392 7.54 2.119 1.527 4.681 2.71 7.342 3.449z" fill="#FFBD07"/></svg>