<svg width="16" height="17" viewBox="0 0 16 17" fill="none" xmlns="http://www.w3.org/2000/svg"><path fill-rule="evenodd" clip-rule="evenodd" d="M11.55 0c.524 0 1.026.21 1.392.579l2.481 2.48a1.97 1.97 0 010 2.786l-9.057 9.054c-.559.645-1.35 1.04-2.258 1.103H0v-.8l.003-3.372A3.238 3.238 0 011.06 9.675L10.156.58c.37-.371.87-.58 1.394-.58zM4.053 14.404c.427-.03.825-.23 1.144-.595l6.049-6.048-3.004-3.004-6.084 6.083c-.324.286-.524.687-.556 1.054v2.508l2.45.002zm5.32-10.778l3.004 3.004 1.916-1.917a.37.37 0 000-.522L11.81 1.708a.365.365 0 00-.518 0L9.374 3.626z" fill="#7B7B7B"/></svg>