<svg width="16" height="16" viewBox="0 0 16 16" fill="none" xmlns="http://www.w3.org/2000/svg"><path d="M12.164 10.584c-.523-.516-1.175-.516-1.695 0-.396.393-.792.785-1.182 1.185-.106.11-.196.133-.326.06-.256-.14-.53-.253-.776-.406-1.148-.723-2.11-1.652-2.963-2.697-.423-.52-.799-1.076-1.062-1.702-.053-.126-.043-.21.06-.313.396-.382.782-.775 1.172-1.168.543-.546.543-1.185-.003-1.735-.31-.313-.62-.62-.93-.932-.319-.32-.635-.643-.958-.959-.523-.51-1.175-.51-1.695.003-.4.393-.782.796-1.188 1.182-.377.357-.566.793-.606 1.302-.064.83.14 1.612.426 2.374.586 1.578 1.478 2.98 2.56 4.265a15.844 15.844 0 005.247 4.105c.92.446 1.872.79 2.907.846.712.04 1.332-.14 1.828-.696.34-.38.722-.726 1.082-1.089.533-.539.536-1.192.007-1.724a517.183 517.183 0 00-1.905-1.901zm-.636-2.653l1.229-.21a5.491 5.491 0 00-1.535-2.963 5.462 5.462 0 00-3.13-1.561L7.92 4.432a4.24 4.24 0 012.424 1.208 4.237 4.237 0 011.185 2.291zM13.45 2.59A9.06 9.06 0 008.254 0l-.173 1.235a7.855 7.855 0 014.488 2.238 7.849 7.849 0 012.201 4.245l1.23-.21a9.125 9.125 0 00-2.55-4.918z" fill="#fff"/></svg>