<svg width="15" height="15" viewBox="0 0 15 15" fill="none" xmlns="http://www.w3.org/2000/svg"><path d="M12.274 9.258c-.506-.5-1.138-.5-1.64 0-.384.38-.767.76-1.144 1.147-.104.107-.19.13-.316.058-.248-.135-.513-.245-.751-.393-1.112-.7-2.043-1.598-2.868-2.61-.41-.503-.774-1.041-1.028-1.647-.052-.122-.042-.203.058-.303.383-.37.757-.75 1.134-1.131.525-.529.525-1.147-.003-1.68-.3-.302-.6-.599-.9-.901-.309-.31-.615-.622-.927-.929C3.383.376 2.75.376 2.249.873c-.387.38-.758.77-1.151 1.144a1.867 1.867 0 00-.587 1.26c-.061.802.136 1.56.413 2.297.567 1.528 1.43 2.885 2.478 4.129a15.336 15.336 0 005.079 3.973c.89.432 1.811.764 2.813.819.69.039 1.29-.135 1.77-.674.328-.367.699-.702 1.047-1.053.515-.523.519-1.154.006-1.67a532.865 532.865 0 00-1.843-1.84z" fill="#7B7B7B"/></svg>