<svg width="36" height="36" viewBox="0 0 36 36" fill="none" xmlns="http://www.w3.org/2000/svg"><rect width="36" height="36" rx="18" fill="#F3BB20"/><path d="M22.433 19.633c-.47-.463-1.056-.463-1.523 0-.356.354-.712.707-1.062 1.066-.096.098-.177.12-.294.054-.23-.126-.475-.228-.697-.366-1.032-.649-1.897-1.484-2.663-2.423-.38-.467-.718-.967-.955-1.53-.048-.113-.039-.188.054-.28.356-.345.703-.698 1.053-1.051.488-.491.488-1.066-.003-1.56l-.835-.837c-.287-.287-.571-.578-.861-.862-.47-.458-1.057-.458-1.524.003-.359.353-.703.715-1.068 1.062-.338.32-.509.712-.545 1.17-.056.745.126 1.449.383 2.134.527 1.418 1.33 2.678 2.302 3.833a14.243 14.243 0 004.716 3.69c.826.401 1.682.71 2.612.76.64.036 1.198-.125 1.643-.625.306-.341.65-.653.973-.979.479-.485.482-1.071.006-1.55-.569-.572-1.14-1.14-1.712-1.709z" fill="#fff"/></svg>