<svg width="36" height="37" viewBox="0 0 36 37" fill="none" xmlns="http://www.w3.org/2000/svg"><rect y=".998" width="36" height="36" rx="18" fill="#32A9E6"/><path d="M8.165 18.966s8.403-3.512 11.318-4.749c1.117-.495 4.905-2.078 4.905-2.078s1.75-.692 1.603.99c-.048.692-.437 3.116-.825 5.738-.583 3.71-1.215 7.767-1.215 7.767s-.097 1.138-.923 1.336c-.825.197-2.185-.693-2.428-.89-.195-.15-3.643-2.375-4.906-3.464-.34-.297-.729-.89.048-1.583a187.005 187.005 0 005.1-4.947c.584-.593 1.166-1.978-1.262-.297-3.45 2.424-6.85 4.7-6.85 4.7s-.776.495-2.234.05c-1.457-.446-3.157-1.04-3.157-1.04s-1.166-.741.826-1.533z" fill="#fff"/></svg>