<svg width="30" height="30" viewBox="0 0 30 30" fill="none" xmlns="http://www.w3.org/2000/svg"><rect width="30" height="30" rx="15" fill="#59ABE8"/><path d="M21 11.28a5.13 5.13 0 01-1.417.388c.51-.305.899-.783 1.082-1.36-.476.284-1 .484-1.56.595a2.46 2.46 0 00-4.256 1.682c0 .196.017.383.057.562a6.963 6.963 0 01-5.07-2.574 2.464 2.464 0 00.756 3.288 2.43 2.43 0 01-1.112-.303v.027c0 1.196.853 2.189 1.971 2.418-.2.055-.418.08-.645.08-.157 0-.316-.008-.466-.041a2.483 2.483 0 002.299 1.714A4.943 4.943 0 019 18.77a6.927 6.927 0 003.774 1.104c4.527 0 7.002-3.75 7.002-7 0-.11-.004-.214-.009-.319A4.895 4.895 0 0021 11.278z" fill="#fff"/></svg>