<svg width="612" height="126" viewBox="0 0 612 126" fill="none" xmlns="http://www.w3.org/2000/svg"><path d="M269.257 27.939h6.494c4.228 0 6.191 2.567 4.832 6.645l-12.836 38.81c-4.681 14.195-9.212 18.424-21.142 18.424-11.779 0-16.611-4.38-21.142-18.424l-12.685-38.81c-1.359-4.078.604-6.645 4.833-6.645h6.493c3.473 0 5.588 1.661 6.645 4.983l10.873 36.697c1.661 5.436 3.02 6.04 5.134 6.04 2.114 0 3.473-.755 5.135-6.04l10.873-36.697c.755-3.473 3.02-4.983 6.493-4.983zm61.913 37.149l-27.032 2.87c2.266 7.097 8.155 9.664 16.612 9.664 4.228 0 9.212-.755 14.648-2.114 4.229-.906 6.645.755 6.645 4.984v1.963c0 3.473-1.661 5.738-4.984 6.644-6.946 1.813-13.44 2.87-19.48 2.87-19.33 0-32.317-10.571-32.317-32.62 0-20.84 11.024-32.618 32.468-32.618 17.97 0 28.692 8.456 28.692 24.464 0 8.91-3.775 12.685-15.252 13.893zm-1.51-15.554c0-6.04-3.776-9.363-11.93-9.363-8.91 0-13.592 4.077-14.649 14.8l22.048-2.266c3.776-.302 4.531-1.057 4.531-3.171zm23.711 33.223v-1.812c0-4.078 2.416-6.04 6.645-5.286 14.95 2.87 30.202 3.776 30.202-3.322 0-2.718-1.963-4.228-6.342-5.437l-13.44-3.473c-12.535-3.171-17.971-9.514-17.971-18.121 0-17.971 23.256-21.746 45.606-16.31 3.473.755 4.983 3.171 4.983 6.645v1.51c0 4.228-2.416 5.89-6.644 4.983-12.383-2.718-27.183-3.322-27.183 2.568 0 2.114 1.661 3.624 4.531 4.228l14.346 3.775c12.534 3.172 18.575 9.363 18.575 19.028 0 19.783-25.824 23.407-48.778 17.367-3.02-.755-4.53-2.87-4.53-6.343zM477.508 59.35c0 24.313-13.289 32.619-35.79 32.619-18.726 0-26.73-5.739-26.73-20.085V7.1c0-3.775 2.115-5.89 5.89-5.89h6.04c3.776 0 5.89 2.115 5.89 5.89v20.085c3.02-.302 6.04-.302 8.91-.302 22.501-.151 35.79 8.004 35.79 32.468zm-17.82 0c0-13.44-4.983-17.669-16.913-17.669-2.869 0-6.192.302-9.967.756v26.729c0 5.134 1.057 7.853 10.118 7.853 11.779-.151 16.762-4.53 16.762-17.669zm27.179-49.382c0-6.191 3.322-9.967 9.967-9.967 6.645 0 9.967 3.776 9.967 9.967 0 6.192-3.322 9.816-9.967 9.816-6.645 0-9.967-3.775-9.967-9.816zm.906 74.903V33.83c0-3.776 2.114-5.89 5.89-5.89h6.342c3.776 0 5.89 2.114 5.89 5.89v51.04c0 3.776-2.114 5.89-5.89 5.89h-6.342c-3.776 0-5.89-2.114-5.89-5.89zm92.573-28.541v28.54c0 3.775-2.114 5.89-5.889 5.89h-6.041c-3.775 0-5.889-2.115-5.889-5.89V56.027c0-11.175-4.078-14.346-13.742-14.346-9.665 0-13.743 3.171-13.743 14.346v28.844c0 3.775-2.114 5.89-5.889 5.89h-6.041c-3.775 0-5.889-2.115-5.889-5.89V56.329c0-22.954 11.628-29.598 31.411-29.598 20.084 0 31.712 6.644 31.712 29.598zM591.07 9.968c0-6.191 3.323-9.967 9.967-9.967 6.645 0 9.967 3.776 9.967 9.967 0 6.192-3.322 9.816-9.967 9.816-6.644 0-9.967-3.775-9.967-9.816zm.906 74.903V33.83c0-3.776 2.115-5.89 5.89-5.89h6.342c3.776 0 5.89 2.114 5.89 5.89v51.04c0 3.776-2.114 5.89-5.89 5.89h-6.342c-3.775 0-5.89-2.114-5.89-5.89zm-167.328 32.166h-2.719v8.155h-2.265v-23.709h2.265v13.591h2.87l5.889-7.4h2.718l-6.644 8.457 7.248 9.212h-2.718l-6.644-8.306zm15.25-15.403h2.568v2.718h-2.568v-2.718zm.151 6.04h2.266v17.518h-2.266v-17.518zm28.092-6.191v23.709h-1.661l-.302-3.02c-1.661 2.114-4.077 3.322-7.098 3.322-5.285 0-9.06-3.926-9.06-9.212 0-5.285 3.775-9.061 9.06-9.061 2.87 0 5.286 1.208 6.947 3.172v-9.061h2.114v.151zm-2.114 14.95c0-4.077-2.869-6.946-6.947-6.946-3.926 0-6.946 3.02-6.946 6.946 0 4.078 3.02 6.947 6.946 6.947 3.927.151 6.947-2.869 6.947-6.947zm10.417-8.759c1.057-.453 1.51-1.359 1.51-2.718h-1.661v-3.02h2.869v2.718c0 2.416-.906 3.624-2.718 4.228v-1.208zm8.611 12.383h2.114c.151 2.266 2.114 3.474 4.832 3.474 2.719 0 4.531-1.208 4.531-3.172 0-2.416-2.417-2.869-4.984-3.171-3.02-.453-6.342-1.057-6.342-4.832 0-3.021 2.567-4.984 6.493-4.984s6.343 1.963 6.494 5.286h-2.114c-.151-2.114-1.813-3.323-4.38-3.323s-4.228 1.209-4.228 2.87c0 2.114 2.114 2.416 4.681 2.869 3.021.453 6.645 1.057 6.645 5.285 0 3.172-2.718 5.286-6.796 5.286-4.077 0-6.795-2.114-6.946-5.588zm56.629-12.383l-6.041 17.518h-1.812l-5.285-12.836-5.286 12.836h-1.812l-5.889-17.518h2.265l4.681 13.894 5.588-13.441h.755l5.587 13.592 4.833-13.894h2.416v-.151zm22.8 9.665H549.08c.302 3.625 3.021 6.192 6.645 6.192 2.567 0 4.832-1.359 5.889-3.474h2.266c-1.51 3.625-4.531 5.588-8.306 5.588-5.135 0-8.91-3.926-8.91-9.212 0-5.134 3.775-9.061 8.91-9.061 5.285 0 8.759 4.078 8.759 9.212.151.151.151.453.151.755zm-15.404-2.114h13.29c-.454-3.473-3.172-5.89-6.645-5.89-3.473.151-6.041 2.417-6.645 5.89zm39.871-7.551v17.518h-1.812l-.302-3.171c-1.661 2.114-4.229 3.473-7.249 3.473-5.134 0-9.061-3.927-9.061-9.212s3.927-9.061 9.061-9.061c3.02 0 5.588 1.359 7.249 3.473l.302-3.171h1.812v.151zm-2.265 8.759c0-4.077-2.869-6.947-6.947-6.947-3.926 0-6.946 3.021-6.946 6.947s3.02 6.947 6.946 6.947c4.078.151 6.947-2.87 6.947-6.947zm20.536-8.759v2.115h-1.661c-3.322 0-5.436 2.265-5.436 5.889v9.665h-2.266v-17.518h1.661l.454 3.021c1.208-1.964 3.171-3.021 5.738-3.021h1.51v-.151z" fill="#fff"/><path d="M9.06 66.146c-2.568-4.229-4.833-8.76-6.343-13.44C-.907 41.833-1.51 29.297 4.68 19.633c7.702-12.08 24.314-16.158 37-9.663 5.285 2.718 9.514 8.003 11.326 14.346.755 3.02 2.114 8.004 1.66 14.648-4.379 2.114-9.966 5.588-15.403 11.024C26.88 62.37 24.01 77.321 23.104 83.361 17.517 78.076 12.835 72.488 9.06 66.146z" fill="#EE2B62"/><path d="M172.304 49.383s-.302 1.51-.604 2.87c-1.661 6.493-16.763 44.246-50.288 47.418-23.407 2.265-40.773-14.045-43.945-17.065l-.604-1.057c10.118-12.232 16.914-27.485 19.33-43.19.604-4.077.906-8.306 2.114-12.232C102.99 10.271 118.845-.149 135.004.002c9.06 0 18.272 3.02 25.219 8.91 6.493 5.436 11.175 12.987 12.685 21.292 1.208 6.192.755 12.837-.604 19.18z" fill="#17CDC9"/><path d="M111.299 115.225c-6.343 2.416-29.6 10.42-51.647-.453-4.53-2.265-12.534-6.343-17.97-15.403-1.209-1.964-8.76-14.045-4.38-28.39 2.87-9.515 9.816-17.67 18.575-22.502-.756.453.453 7.55.604 8.457.453 2.87 1.057 5.89 1.963 8.608 1.661 5.738 4.38 11.024 7.702 16.007 6.191 9.06 13.59 16.913 22.652 23.105 6.493 4.682 14.346 8.306 22.501 10.571z" fill="#FFBD07"/></svg>