<svg width="36" height="37" viewBox="0 0 36 37" fill="none" xmlns="http://www.w3.org/2000/svg"><rect y=".998" width="36" height="36" rx="18" fill="#665CAC"/><path d="M25.345 10.948c-.498-.456-2.506-1.915-6.978-1.936 0 0-5.276-.318-7.849 2.041-1.431 1.432-1.935 3.527-1.986 6.126-.054 2.6-.124 7.465 4.57 8.785h.004l-.003 2.014s-.03.816.507.981c.648.202 1.03-.417 1.65-1.086.34-.366.811-.906 1.165-1.318 3.209.27 5.679-.348 5.958-.438.648-.21 4.316-.681 4.91-5.546.615-5.016-.3-8.191-1.948-9.623zm.543 9.262c-.504 4.064-3.478 4.322-4.024 4.496-.235.076-2.402.616-5.127.436 0 0-2.032 2.449-2.665 3.088-.099.1-.216.141-.294.12-.108-.027-.138-.156-.138-.345.003-.27.018-3.346.018-3.346-.003 0-.003 0 0 0-3.968-1.102-3.737-5.247-3.692-7.417.045-2.17.453-3.947 1.663-5.141 2.176-1.97 6.657-1.675 6.657-1.675 3.785.018 5.598 1.156 6.018 1.537 1.392 1.197 2.104 4.058 1.584 8.248z" fill="#fff"/><path d="M20.208 17.072c-.048-.994-.552-1.513-1.513-1.564m2.806 2c.021-.925-.252-1.696-.822-2.317-.57-.622-1.36-.967-2.374-1.039" stroke="#fff" stroke-width=".844" stroke-linecap="round" stroke-linejoin="round"/><path d="M22.83 18.025c-.012-1.605-.493-2.866-1.438-3.79-.945-.922-2.125-1.39-3.533-1.4" stroke="#fff" stroke-width=".844" stroke-linecap="round" stroke-linejoin="round"/><path d="M18.744 20.458s.357.03.547-.207l.372-.469c.18-.234.615-.38 1.041-.144.237.135.663.397.928.592.282.207.86.69.86.69.277.231.34.573.154.933 0 .003-.003.006-.003.006-.192.34-.45.66-.777.958l-.006.006c-.267.222-.532.351-.79.381a.443.443 0 01-.114.006c-.114 0-.225-.015-.336-.051l-.009-.012c-.4-.111-1.062-.393-2.17-1.002a12.77 12.77 0 01-1.822-1.204c-.267-.21-.54-.45-.82-.726-.008-.01-.017-.018-.026-.027l-.027-.027-.027-.027-.027-.027a9.61 9.61 0 01-.726-.82 12.953 12.953 0 01-1.204-1.822c-.61-1.107-.891-1.77-1.003-2.17l-.011-.009a.995.995 0 01-.051-.336.443.443 0 01.006-.114c.03-.258.159-.522.38-.79l.007-.005c.297-.327.615-.585.957-.777.003 0 .006-.003.006-.003.36-.187.702-.124.933.153.003.003.484.579.69.861.196.267.46.69.592.927.237.427.09.862-.144 1.042l-.468.372c-.237.192-.207.546-.207.546s.696 2.633 3.295 3.296z" fill="#fff"/></svg>