<svg width="30" height="30" viewBox="0 0 30 30" fill="none" xmlns="http://www.w3.org/2000/svg"><rect width="30" height="30" rx="15" fill="#4C77A6"/><path fill-rule="evenodd" clip-rule="evenodd" d="M20.049 16.077c.464.453.954.88 1.37 1.379.185.221.36.45.492.708.19.366.018.768-.31.79h-2.04c-.526.043-.945-.169-1.298-.529-.282-.287-.544-.593-.815-.89a1.928 1.928 0 00-.367-.327c-.279-.18-.52-.125-.68.165-.162.296-.198.623-.214.952-.022.48-.167.606-.65.628-1.03.049-2.01-.107-2.918-.627-.802-.459-1.423-1.106-1.964-1.839-1.053-1.427-1.86-2.995-2.584-4.606-.163-.364-.044-.559.357-.565.665-.013 1.33-.012 1.996-.001.27.004.45.159.554.414.36.885.8 1.728 1.354 2.508.147.208.297.416.51.562.237.162.417.108.528-.155a1.74 1.74 0 00.118-.526c.053-.616.06-1.23-.033-1.844-.057-.383-.272-.63-.654-.703-.195-.037-.166-.11-.072-.22.164-.193.318-.312.626-.312h2.305c.363.072.443.235.493.6l.002 2.56c-.004.142.07.561.325.655.204.066.338-.097.46-.226.552-.586.946-1.278 1.298-1.995.156-.315.29-.642.42-.97.097-.242.248-.361.522-.356l2.218.002c.066 0 .132 0 .196.012.374.063.476.224.36.59-.181.572-.535 1.05-.881 1.529-.37.512-.766 1.006-1.133 1.521-.337.47-.31.707.109 1.116z" fill="#fff"/></svg>