<svg width="36" height="37" viewBox="0 0 36 37" fill="none" xmlns="http://www.w3.org/2000/svg"><rect y=".998" width="36" height="36" rx="18" fill="#01D363"/><path d="M28.141 18.487c0 5.457-4.457 9.88-9.956 9.88a9.974 9.974 0 01-4.813-1.23L7.859 28.89l1.798-5.3a9.776 9.776 0 01-1.43-5.102c0-5.456 4.458-9.88 9.958-9.88s9.956 4.424 9.956 9.88zm-9.956-8.306c-4.617 0-8.371 3.726-8.371 8.306 0 1.818.592 3.5 1.594 4.87l-1.046 3.085 3.217-1.023a8.366 8.366 0 004.606 1.374c4.615 0 8.37-3.725 8.37-8.305s-3.755-8.307-8.37-8.307zm5.027 10.582c-.061-.101-.224-.162-.467-.283-.245-.121-1.445-.707-1.668-.788-.224-.08-.387-.121-.55.121-.162.243-.63.788-.772.95-.143.161-.285.182-.53.06-.243-.12-1.03-.377-1.962-1.201-.725-.642-1.215-1.434-1.357-1.677-.143-.242-.015-.373.107-.494.11-.108.244-.283.366-.424.122-.142.163-.242.244-.404.081-.162.04-.303-.02-.424-.062-.121-.55-1.313-.753-1.798-.204-.485-.407-.404-.55-.404-.142 0-.304-.02-.467-.02a.9.9 0 00-.651.303c-.224.242-.854.828-.854 2.02 0 1.191.874 2.343.997 2.504.121.161 1.687 2.686 4.169 3.656 2.48.97 2.48.646 2.928.605.447-.04 1.444-.586 1.648-1.15.203-.567.203-1.052.142-1.152z" fill="#fff"/></svg>