<svg width="30" height="30" viewBox="0 0 30 30" fill="none" xmlns="http://www.w3.org/2000/svg"><rect width="30" height="30" rx="15" fill="#B50508"/><path d="M20.204 15.219a1.33 1.33 0 00-.418-.72 1.333 1.333 0 00-.747-.343c-.892-.097-2.239-.145-4.04-.145-1.8 0-3.144.048-4.032.145a1.382 1.382 0 00-1.172 1.063c-.126.563-.19 1.412-.19 2.548 0 1.155.064 2.004.19 2.547.063.287.202.527.418.721.216.194.465.306.747.335.892.102 2.24.153 4.04.153 1.8 0 3.147-.051 4.04-.153.281-.03.528-.14.742-.335.214-.194.354-.434.422-.72.126-.564.19-1.413.19-2.548 0-1.155-.064-2.005-.19-2.548zm-7.52.735h-.778v4.142h-.728v-4.142h-.764v-.684h2.27v.684zm1.966 4.142h-.648v-.393c-.262.296-.51.444-.742.444-.223 0-.364-.09-.422-.27-.04-.116-.059-.293-.059-.53V16.5h.648v2.65c0 .155.003.24.008.255.014.101.065.152.152.152.131 0 .27-.102.415-.305V16.5h.648v3.596zm2.475-1.077c0 .354-.022.597-.065.728-.083.267-.255.4-.517.4-.233 0-.459-.133-.677-.4v.35h-.648V15.27h.648v1.58c.209-.262.434-.393.677-.393.262 0 .434.136.517.407.043.126.065.367.065.72v1.435zm2.46-.597h-1.302v.633c0 .335.111.502.334.502.16 0 .258-.087.291-.262a3.62 3.62 0 00.015-.444h.663v.095c0 .238-.005.378-.015.422a.882.882 0 01-.153.393c-.175.257-.437.386-.786.386-.335 0-.597-.124-.786-.371-.141-.18-.211-.461-.211-.845v-1.259c0-.383.067-.665.203-.844a.93.93 0 01.78-.372.92.92 0 01.77.372c.132.18.197.46.197.844v.75z" fill="#fff"/><path d="M16.193 17.046c-.111 0-.22.053-.327.16v2.191c.107.107.216.16.327.16.19 0 .284-.162.284-.488v-1.535c0-.326-.094-.488-.284-.488zm2.417 0c-.218 0-.328.165-.328.495v.335h.655v-.335c0-.33-.109-.495-.327-.495zm-6.347-5.663v1.973h.728v-1.973l.88-2.904h-.742l-.495 1.914-.517-1.914h-.771c.136.407.293.86.473 1.36.228.67.376 1.185.444 1.544zm2.584 2.023c.335 0 .592-.123.771-.37.136-.18.204-.467.204-.86v-1.274c0-.388-.068-.672-.204-.851-.18-.248-.437-.372-.771-.372a.9.9 0 00-.765.372c-.136.18-.204.463-.204.851v1.274c0 .388.068.675.204.86a.9.9 0 00.765.37zm-.313-2.635c0-.335.104-.502.313-.502.208 0 .313.168.313.502V12.3c0 .34-.105.51-.313.51-.21 0-.313-.17-.313-.51v-1.53zm2.314 2.635c.243 0 .493-.15.75-.451v.4h.663V9.723h-.663v2.773c-.145.21-.284.313-.415.313-.087 0-.138-.053-.153-.16a1.896 1.896 0 01-.007-.255V9.723h-.662v2.868c0 .248.02.43.058.546.063.18.206.27.43.27z" fill="#fff"/></svg>